<?xml version="1.0" encoding="UTF-8" standalone="no"?>
<svg width="346px" height="61px" viewBox="0 0 346 61" version="1.1" xmlns="http://www.w3.org/2000/svg" xmlns:xlink="http://www.w3.org/1999/xlink" xmlns:sketch="http://www.bohemiancoding.com/sketch/ns">
    <!-- Generator: Sketch 3.1.1 (8761) - http://www.bohemiancoding.com/sketch -->
    <title>Logo 2</title>
    <desc>Created with Sketch.</desc>
    <defs></defs>
    <g id="Very-Basic" stroke="none" stroke-width="1" fill="none" fill-rule="evenodd" sketch:type="MSPage">
        <g id="Logo" sketch:type="MSArtboardGroup" transform="translate(-22.000000, -21.000000)" fill="#000000">
            <g id="Logo-2" sketch:type="MSLayerGroup" transform="translate(22.000000, 22.000000)">
                <path d="M64.8476105,34.2159677 L69.1076934,34.2159677 L74.3889572,42.4635484 L80.7261878,42.4635484 L74.7058425,33.258871 C77.8394337,32.0433871 79.9871064,29.4295161 79.9871064,25.2682258 L79.9871064,25.1951613 C79.9871064,19.8929032 76.5018439,16.6896774 70.6925967,16.6896774 L59.42625,16.6896774 L59.42625,42.4640323 L64.848087,42.4640323 L64.848087,34.2159677 L64.8476105,34.2159677 Z M64.8476105,21.8070968 L70.2341851,21.8070968 C72.8750552,21.8070968 74.494268,23.058871 74.494268,25.488871 L74.494268,25.5624194 C74.494268,27.7345161 72.980366,29.2074194 70.3399724,29.2074194 L64.8476105,29.2074194 L64.8476105,21.8070968 L64.8476105,21.8070968 Z" id="Shape" sketch:type="MSShapeGroup"></path>
                <path d="M101.777859,42.9053226 C109.382631,42.9053226 114.910256,36.903871 114.910256,29.576129 L114.910256,29.5030645 C114.910256,22.1753226 109.453156,16.2474194 101.848384,16.2474194 C94.2440884,16.2474194 88.7164641,22.248871 88.7164641,29.576129 L88.7164641,29.6496774 C88.7164641,36.9774194 94.173087,42.9053226 101.777859,42.9053226 L101.777859,42.9053226 Z M94.3846616,29.5030645 C94.3846616,25.0843548 97.4124655,21.476129 101.777859,21.476129 C106.143729,21.476129 109.242058,25.1579032 109.242058,29.576129 L109.242058,29.6496774 C109.242058,34.0683871 106.214254,37.6766129 101.848384,37.6766129 C97.4825138,37.6766129 94.3846616,33.9948387 94.3846616,29.576129 L94.3846616,29.5030645 L94.3846616,29.5030645 Z" id="Shape" sketch:type="MSShapeGroup"></path>
                <path d="M136.630483,42.9053226 C144.235256,42.9053226 149.76288,36.903871 149.76288,29.576129 L149.76288,29.5030645 C149.76288,22.1753226 144.30578,16.2474194 136.701008,16.2474194 C129.096713,16.2474194 123.569088,22.248871 123.569088,29.576129 L123.569088,29.6496774 C123.568612,36.9774194 129.025711,42.9053226 136.630483,42.9053226 L136.630483,42.9053226 Z M129.236809,29.5030645 C129.236809,25.0843548 132.264613,21.476129 136.630007,21.476129 C140.995877,21.476129 144.094206,25.1579032 144.094206,29.576129 L144.094206,29.6496774 C144.094206,34.0683871 141.066402,37.6766129 136.700532,37.6766129 C132.334662,37.6766129 129.236809,33.9948387 129.236809,29.576129 L129.236809,29.5030645 L129.236809,29.5030645 Z" id="Shape" sketch:type="MSShapeGroup"></path>
                <path d="M166.41866,25.7467742 L173.553108,42.4635484 L174.661015,42.4635484 L181.718267,25.6364516 L181.718267,42.4635484 L187.629489,42.4635484 L187.629489,16.6891935 L180.739496,16.6891935 L174.1073,32.8703226 L167.474627,16.6891935 L160.584634,16.6891935 L160.584634,42.4635484 L166.41866,42.4635484 L166.41866,25.7467742 Z" id="Shape" sketch:type="MSShapeGroup"></path>
                <path d="M207.131043,32.1169355 L217.788398,32.1169355 L217.788398,42.4635484 L223.567148,42.4635484 L223.567148,16.6891935 L217.788398,16.6891935 L217.788398,26.8882258 L207.131043,26.8882258 L207.131043,16.6891935 L201.352293,16.6891935 L201.352293,42.4635484 L207.131043,42.4635484 L207.131043,32.1169355 Z" id="Shape" sketch:type="MSShapeGroup"></path>
                <path d="M244.899489,42.4635484 L248.663515,42.4635484 L248.663515,36.9575806 L244.899489,36.9575806 L244.899489,22.1951613 L248.663515,22.1951613 L248.663515,16.6891935 L235.713626,16.6891935 L235.713626,22.1951613 L239.477652,22.1951613 L239.477652,36.9575806 L235.713626,36.9575806 L235.713626,42.4635484 L239.477652,42.4635484 L244.899489,42.4635484 Z" id="Shape" sketch:type="MSShapeGroup"></path>
                <path d="M267.693791,26.0787097 L279.629171,42.4635484 L284.240925,42.4635484 L284.240925,16.6891935 L278.889613,16.6891935 L278.889613,32.5587097 L267.341644,16.6891935 L262.342479,16.6891935 L262.342479,42.4635484 L267.693791,42.4635484 L267.693791,26.0787097 Z" id="Shape" sketch:type="MSShapeGroup"></path>
                <path d="M303.204012,42.4635484 L308.625849,42.4635484 L308.625849,21.9179032 L316.124834,21.9179032 L316.124834,16.6891935 L295.705028,16.6891935 L295.705028,21.9179032 L303.204012,21.9179032 L303.204012,42.4635484 Z" id="Shape" sketch:type="MSShapeGroup"></path>
                <path d="M336.092424,37.8241935 C333.275718,37.8241935 330.95221,36.6087097 328.734012,34.6940323 L325.530373,38.7077419 C328.487652,41.4691935 332.254537,42.8312903 335.986637,42.8312903 C341.302686,42.8312903 345.034309,39.9590323 345.034309,34.841129 L345.034309,34.7675806 C345.034309,30.2758065 342.21808,28.3979032 337.218439,27.0358065 C332.958833,25.8943548 331.90239,25.3417742 331.90239,23.6482258 L331.90239,23.5746774 C331.90239,22.3229032 332.994095,21.3285484 335.070767,21.3285484 C337.147914,21.3285484 339.295587,22.286129 341.478522,23.868871 L344.294751,19.5982258 C341.795407,17.4991935 338.732341,16.3209677 335.141291,16.3209677 C330.106865,16.3209677 326.515338,19.4143548 326.515338,24.0904839 L326.515338,24.1640323 C326.515338,29.2819355 329.719454,30.7180645 334.683356,32.0433871 C338.802866,33.1480645 339.647735,33.8845161 339.647735,35.3201613 L339.647735,35.3937097 C339.648211,36.903871 338.310145,37.8241935 336.092424,37.8241935 L336.092424,37.8241935 Z" id="Shape" sketch:type="MSShapeGroup"></path>
                <path d="M14.2955801,14.2741935 L34.5476519,14.2741935 L34.5476519,-0.241935484 L0,-0.241935484 L0,59.7580645 L14.2955801,59.7580645 L14.2955801,14.2741935 Z" id="Shape" sketch:type="MSShapeGroup"></path>
            </g>
        </g>
    </g>
</svg>